<?xml version="1.0" encoding="UTF-8"?>
<svg width="2315px" height="560px" viewBox="0 0 2315 560" version="1.1" xmlns="http://www.w3.org/2000/svg" xmlns:xlink="http://www.w3.org/1999/xlink">
    <title>Logo Kooba</title>
    <defs></defs>
    <g id="Page-1" stroke="none" stroke-width="1" fill="none" fill-rule="evenodd">
        <g id="Artboard" fill="#1B1A19">
            <g id="Kooba_Logo">
                <path d="M191.213,160.604 C228.035,160.604 233.694,126.612 304.508,126.612 C351.245,126.612 383.821,145.028 383.821,177.605 C383.821,205.925 371.075,221.501 345.584,255.487 C327.179,279.569 318.668,289.484 318.668,309.316 C318.668,337.636 327.179,343.311 365.416,408.449 C386.651,443.855 403.652,475.022 403.652,497.682 C403.652,534.499 380.991,560 334.265,560 C290.348,560 269.111,552.915 242.195,527.424 C223.79,509.008 206.778,482.102 191.213,482.102 C177.042,482.102 177.042,490.597 160.052,520.344 C151.551,534.499 128.891,560 86.409,560 C15.596,560 0,509.008 0,448.111 L0,96.871 C0,43.054 24.086,0.567 87.824,0.567 C137.391,0.567 171.383,37.389 171.383,84.126 C171.383,106.786 175.628,160.604 191.213,160.604" id="Fill-1"></path>
                <path d="M618.176,411.289 C649.338,411.289 676.244,377.297 676.244,334.807 C676.244,295.144 656.413,259.754 616.762,259.754 C585.599,259.754 558.694,288.074 558.694,336.226 C558.694,378.718 584.185,411.289 618.176,411.289 Z M625.262,557.17 C472.306,557.17 391.567,462.276 391.567,334.807 C391.567,201.68 486.466,112.452 616.762,112.452 C742.812,112.452 843.37,200.266 843.37,333.396 C843.37,455.191 761.217,557.17 625.262,557.17 L625.262,557.17 Z" id="Fill-2"></path>
                <path d="M1086.95,411.289 C1118.1,411.289 1145.02,377.297 1145.02,334.807 C1145.02,295.144 1125.19,259.754 1085.52,259.754 C1054.37,259.754 1027.46,288.074 1027.46,336.226 C1027.46,378.718 1052.95,411.289 1086.95,411.289 Z M1094.04,557.17 C941.069,557.17 860.34,462.276 860.34,334.807 C860.34,201.68 955.229,112.452 1085.52,112.452 C1211.59,112.452 1312.13,200.266 1312.13,333.396 C1312.13,455.191 1229.99,557.17 1094.04,557.17 L1094.04,557.17 Z" id="Fill-3"></path>
                <path d="M1536.59,424.738 C1567.75,424.738 1590.41,390.751 1590.41,342.599 C1590.41,302.942 1573.42,261.86 1538,261.86 C1511.1,261.86 1485.61,287.366 1485.61,338.348 C1485.61,396.416 1513.93,424.738 1536.59,424.738 Z M1496.93,117.41 C1508.27,128.74 1516.76,128.74 1562.09,128.74 C1613.07,128.74 1637.14,142.901 1655.56,152.816 C1665.47,159.897 1676.81,168.392 1688.14,178.307 C1726.37,213.713 1744.79,266.126 1744.79,335.519 C1744.79,468.649 1669.72,557.868 1562.09,557.868 C1530.93,557.868 1488.44,546.542 1471.44,546.542 C1464.36,546.542 1453.04,547.952 1417.63,547.952 C1341.14,547.952 1329.82,508.306 1329.82,430.413 L1329.82,107.494 C1329.82,38.102 1362.39,11.185 1404.89,11.185 C1454.44,11.185 1465.78,32.431 1482.78,84.833 C1485.61,94.748 1489.85,110.329 1496.93,117.41 L1496.93,117.41 Z" id="Fill-4"></path>
                <path d="M1938.07,450.941 C1960.73,450.941 1979.15,431.11 1979.15,409.869 C1979.15,401.379 1974.9,382.958 1950.82,382.958 C1918.26,382.958 1905.5,408.449 1905.5,416.955 C1905.5,443.855 1923.92,450.941 1938.07,450.941 Z M2143.44,462.276 C2143.44,517.508 2116.52,545.835 2061.29,545.835 L2006.05,541.579 C1974.9,541.579 1933.83,555.745 1901.26,555.745 C1819.11,555.745 1755.37,497.682 1755.37,426.87 C1755.37,397.123 1761.04,370.213 1768.12,357.467 L1796.45,316.4 C1804.95,305.06 1807.78,295.144 1807.78,289.484 C1806.36,271.079 1783.71,254.078 1783.71,218.671 C1783.71,152.109 1865.85,112.452 1947.98,112.452 C2092.45,112.452 2143.44,160.604 2143.44,305.06 L2143.44,462.276 L2143.44,462.276 Z" id="Fill-5"></path>
                <path d="M2254.41,159.503 C2246.73,165.593 2237.55,168.638 2226.86,168.638 C2213.39,168.638 2201.89,163.816 2192.34,154.169 C2182.79,144.525 2178.02,131.69 2178.02,115.67 C2178.02,100.713 2182.32,88.214 2190.92,78.156 C2199.54,68.105 2210.77,63.074 2224.66,63.074 C2233.39,63.074 2241.26,64.834 2248.29,68.346 C2260.45,74.645 2267.06,85.1 2268.12,99.733 L2253.3,99.733 C2252.54,93.601 2249.98,88.292 2245.58,83.795 C2241.17,79.305 2234.78,77.056 2226.37,77.056 C2214.55,77.056 2205.98,82.365 2200.67,92.993 C2197.25,99.78 2195.54,107.086 2195.54,114.936 C2195.54,126.136 2198.29,135.553 2203.8,143.199 C2209.31,150.84 2217.28,154.661 2227.72,154.661 C2234.41,154.661 2239.99,152.884 2244.48,149.326 C2248.97,145.768 2252.1,140.605 2253.89,133.819 L2268.74,133.819 C2266.86,144.85 2262.08,153.414 2254.41,159.503 Z M2170.02,61.607 C2155.09,76.725 2147.6,94.995 2147.6,116.409 C2147.6,137.985 2155.03,156.374 2169.9,171.577 C2184.94,186.786 2203.13,194.385 2224.54,194.385 C2245.94,194.385 2264.15,186.786 2279.18,171.577 C2294.04,156.374 2301.47,137.985 2301.47,116.409 C2301.47,94.995 2294,76.725 2279.06,61.607 C2264.1,46.402 2245.94,38.799 2224.54,38.799 C2203.22,38.799 2185.05,46.402 2170.02,61.607 Z M2288.25,180.162 C2270.69,197.819 2249.44,206.643 2224.54,206.643 C2199.62,206.643 2178.39,197.819 2160.83,180.162 C2143.26,162.506 2134.48,141.213 2134.48,116.288 C2134.48,91.441 2143.26,70.275 2160.83,52.776 C2178.39,35.287 2199.62,26.536 2224.54,26.536 C2249.44,26.536 2270.69,35.287 2288.25,52.776 C2305.8,70.275 2314.59,91.441 2314.59,116.288 C2314.59,141.213 2305.8,162.506 2288.25,180.162 L2288.25,180.162 Z" id="Fill-6"></path>
            </g>
        </g>
    </g>
</svg>