<svg width="18" height="18" xmlns="http://www.w3.org/2000/svg"><path d="M8.667 1.895c2.314 0 2.588.009 3.502.05.845.039 1.304.18 1.609.299.405.157.693.345.997.648.303.303.49.592.648.997.118.305.26.764.298 1.609.042.914.05 1.188.05 3.502s-.008 2.588-.05 3.502c-.038.845-.18 1.304-.298 1.61a2.685 2.685 0 0 1-.648.996 2.685 2.685 0 0 1-.997.648c-.305.119-.764.26-1.61.299-.913.041-1.187.05-3.501.05-2.315 0-2.589-.009-3.502-.05-.845-.039-1.304-.18-1.61-.299a2.685 2.685 0 0 1-.996-.648 2.685 2.685 0 0 1-.648-.997c-.12-.305-.26-.764-.299-1.609-.042-.914-.05-1.188-.05-3.502s.008-2.588.05-3.502c.039-.845.18-1.304.299-1.61.157-.404.345-.693.648-.996.303-.303.592-.49.996-.648.306-.119.765-.26 1.61-.299.913-.041 1.188-.05 3.502-.05zm0-1.562c-2.354 0-2.65.01-3.574.052-.922.043-1.552.19-2.103.403a4.248 4.248 0 0 0-1.535 1 4.248 4.248 0 0 0-1 1.535c-.214.551-.36 1.181-.403 2.104C.01 6.35 0 6.647 0 9c0 2.354.01 2.649.052 3.573.042.923.189 1.553.403 2.104.221.57.518 1.053 1 1.535.481.482.965.778 1.535 1 .55.214 1.18.36 2.103.403.925.042 1.22.052 3.574.052 2.353 0 2.649-.01 3.573-.052.922-.043 1.552-.189 2.104-.403a4.248 4.248 0 0 0 1.535-1 4.248 4.248 0 0 0 1-1.535c.214-.551.36-1.181.402-2.104.042-.924.052-1.22.052-3.573 0-2.354-.01-2.649-.052-3.573-.042-.923-.188-1.553-.403-2.104a4.248 4.248 0 0 0-1-1.535 4.248 4.248 0 0 0-1.534-1c-.552-.214-1.182-.36-2.104-.403-.924-.042-1.22-.052-3.573-.052zm0 4.217a4.45 4.45 0 1 0 0 8.9 4.45 4.45 0 0 0 0-8.9zm0 7.339a2.889 2.889 0 1 1 0-5.778 2.889 2.889 0 0 1 0 5.778zm5.666-7.515a1.04 1.04 0 1 1-2.08 0 1.04 1.04 0 0 1 2.08 0z" fill="#FFF"/></svg>