<svg width="21" height="18" xmlns="http://www.w3.org/2000/svg"><path d="M20.152 2.353a7.91 7.91 0 0 1-2.357.679A4.29 4.29 0 0 0 19.599.648a7.995 7.995 0 0 1-2.606 1.046 4.01 4.01 0 0 0-2.995-1.36c-2.266 0-4.103 1.928-4.103 4.308 0 .337.037.666.107.982-3.411-.18-6.434-1.896-8.458-4.502a4.457 4.457 0 0 0-.556 2.166c0 1.494.725 2.813 1.825 3.586a3.935 3.935 0 0 1-1.858-.539v.055c0 2.087 1.414 3.828 3.292 4.224a3.927 3.927 0 0 1-1.854.074c.522 1.712 2.038 2.957 3.834 2.992a7.987 7.987 0 0 1-6.075 1.785 11.218 11.218 0 0 0 6.29 1.935c7.547 0 11.674-6.565 11.674-12.259 0-.187-.004-.372-.012-.558a8.565 8.565 0 0 0 2.048-2.23" fill="#FFF"/></svg>