<svg width="26" height="18" xmlns="http://www.w3.org/2000/svg"><path d="M10.785 5.308v7.384L17.345 9l-6.56-3.691zM17.451.333c.104.147.26.068.39.074 1.484.065 2.97.117 4.448.296 1.995.243 3.006 1.18 3.305 3.127.39 2.54.404 5.095.265 7.655-.054 1.011-.14 2.019-.33 3.017-.31 1.626-1.347 2.584-3.027 2.78-2.767.322-5.547.346-8.327.378-2.846.031-5.69-.044-8.53-.228a16.95 16.95 0 0 1-1.924-.222c-1.384-.25-2.342-1.153-2.643-2.5-.24-1.066-.303-2.154-.391-3.24-.01-.113.065-.256-.08-.342V6.871c.145-.086.07-.228.08-.342.078-.958.146-1.916.31-2.865C1.307 1.889 2.336.932 4.16.705 5.609.525 7.067.481 8.524.409c.129-.006.285.073.388-.076h8.539z" fill="#FFF"/></svg>